# xmcd CD database file
#
# Track frame offsets:
#	150
#	6250
#	57655
#	86232
#	124067
#	152040
#	183312
#	190080
#	227797
#	243040
#	260160
#
# Disc length: 3510 seconds
#
# Revision: 0
# Processed by: cddbd v1.5.1PL0 Copyright (c) Steve Scherf et al.
# Submitted via: CDex 1.51
#
DISCID=930db40b
DTITLE=Wynton Marsalis - Soul Gestures in Southern Blue:  An Overview
DYEAR=1991
DGENRE=Jazz
TTITLE0=Introduction
TTITLE1=The Blues - An Overview
TTITLE2=Wynton and the Blues
TTITLE3=Soul Gestures in Southern Blue
TTITLE4=Vol. I - Thick in the South
TTITLE5=Vol. II - Uptown Ruler
TTITLE6=Musicians on "Uptown Ruler" -  "Thick in the South"
TTITLE7=Vol. III - Levee Low Moan
TTITLE8=The Album Artwork - The Music
TTITLE9=The Future for Wynton Marsalis
TTITLE10=Closing
EXTD=YEAR: 1991
EXTT0=
EXTT1=
EXTT2=
EXTT3=
EXTT4=
EXTT5=
EXTT6=
EXTT7=
EXTT8=
EXTT9=
EXTT10=
PLAYORDER=
